<svg xmlns="http://www.w3.org/2000/svg" viewBox="0 0 1330.99 495.42"><defs><style>.cls-1,.cls-10,.cls-11,.cls-3,.cls-4,.cls-5{fill:#ccc;}.cls-2{fill:#1a1a1a;}.cls-10,.cls-11,.cls-3,.cls-4,.cls-5,.cls-7,.cls-8,.cls-9{stroke:#000;}.cls-10,.cls-11,.cls-3,.cls-5,.cls-6,.cls-7{stroke-linecap:round;}.cls-10,.cls-11,.cls-3,.cls-6,.cls-7{stroke-linejoin:round;}.cls-3{stroke-width:1.26px;}.cls-4,.cls-9{stroke-width:0.26px;}.cls-6{fill:#ececec;stroke:#231f20;}.cls-11,.cls-6{stroke-width:3px;}.cls-7,.cls-8{fill:#666;stroke-width:0.87px;}.cls-9{fill:#333;}.cls-10{stroke-width:2px;}</style></defs><title>Asset 2</title><g id="Layer_2" data-name="Layer 2"><g id="svg24"><g id="svg8"><g id="layer1"><path id="path851" class="cls-1" d="M715.71,365.77c3.25,1.34,26.66,40.84-28.92,56.78-21.13,6.06-160.83,7.63-288.08-4.69C282,406.57,176,382.4,177.86,364.7L62.14,342.2,7.5,316.48s-10.71-51.42,8.57-56.78L0,206.13s16.07,8.57,36.43-70.72c0,0,12.86-50.36,258.21-41.78l283.93,22.5S521.79,57.2,486.43,50.77c-.11-.55,90.8-98.7,275.35-20.61,29.86,8.53,144,85,161.79,98.82,0,0,322.5,15,384.64,114.65,0,0,25.72,17.14,22.5,185.35,0,0-120.06,36.77-251.23,35-48-.64-97.43-6.44-143.05-21.07-.54-.06-37.67-1.21-50.36-69.64Z"/><ellipse id="path849" class="cls-2" cx="130.71" cy="306.84" rx="65.36" ry="97.5"/><ellipse id="path847" class="cls-2" cx="815.89" cy="371.13" rx="104.46" ry="124.29"/><path id="path855" class="cls-3" d="M713.57,391.48S127.16,461.8,320,152.15"/><circle id="path857" class="cls-4" cx="657.86" cy="132.2" r="0.18"/><path id="path859" class="cls-5" d="M632.11,139.74c-7.77-9.48,115-72.22,284-9.26"/><path id="path863" class="cls-6" d="M1148,259.7s-178.93-67-240-22c0,0,97,71.25,215.35,48.22l24.7-26.27"/><path id="path867" class="cls-7" d="M1180.53,258s-27.52,3.9-21.84,38.75,74.62,31,98,27c14.27-2.45,34.5-65.29-26-70.79Z"/><path id="path869" class="cls-8" d="M1285.18,319.43c19.39-.31,26.51-10,27.86-14.73,3.29-11.5,4.55-32.68,4.55-32.68-1,.26.73-22.49-20.36-22.77-30.53-.4-25.36,14.47-25.71,24.91C1271.13,285.55,1272.35,319.63,1285.18,319.43Z"/><path id="path871" class="cls-2" d="M1161.35,336.86c11.08,2.17-7.34,70.19-37.51,83-25.49,10.8-46.88,19.64-126.14-16.28-14.75-6.69,33.61-65.72,42.43-78.8,19.72-29.25,107.56,9.46,121.22,12.12Z"/><path id="path873" class="cls-9" d="M1172.14,409.7s-9.67,44.9,153.22-7.5c.76-.25,3.94-54.64-2.15-55.72-62.42-11-127.92,12.52-132.85,16.07C1181,369.27,1172.14,409.7,1172.14,409.7Z"/><path id="path875" class="cls-10" d="M618.79,172.75S470.4,99.06,385.55,130.84s-210.17-23.69-210.17-23.69"/><path id="path877" class="cls-11" d="M1148.09,259.68c51-14.68,99.29-20.92,155.25-16.32"/></g></g></g></g></svg>