<?xml version="1.0" encoding="UTF-8" standalone="no"?>
<svg
   xmlns:dc="http://purl.org/dc/elements/1.1/"
   xmlns:cc="http://creativecommons.org/ns#"
   xmlns:rdf="http://www.w3.org/1999/02/22-rdf-syntax-ns#"
   xmlns:svg="http://www.w3.org/2000/svg"
   xmlns="http://www.w3.org/2000/svg"
   xmlns:sodipodi="http://sodipodi.sourceforge.net/DTD/sodipodi-0.dtd"
   xmlns:inkscape="http://www.inkscape.org/namespaces/inkscape"
   inkscape:version="1.0 (4035a4fb49, 2020-05-01)"
   sodipodi:docname="car2.svg"
   id="svg1538"
   version="1.1"
   viewBox="0 0 986.17 377.11">
  <metadata
     id="metadata1542">
    <rdf:RDF>
      <cc:Work
         rdf:about="">
        <dc:format>image/svg+xml</dc:format>
        <dc:type
           rdf:resource="http://purl.org/dc/dcmitype/StillImage" />
      </cc:Work>
    </rdf:RDF>
  </metadata>
  <sodipodi:namedview
     inkscape:current-layer="svg1538"
     inkscape:window-maximized="1"
     inkscape:window-y="-8"
     inkscape:window-x="1912"
     inkscape:cy="88.114614"
     inkscape:cx="411.82599"
     inkscape:zoom="0.76506378"
     showgrid="false"
     id="namedview1540"
     inkscape:window-height="1017"
     inkscape:window-width="1920"
     inkscape:pageshadow="2"
     inkscape:pageopacity="0"
     guidetolerance="10"
     gridtolerance="10"
     objecttolerance="10"
     borderopacity="1"
     bordercolor="#666666"
     pagecolor="#ffffff" />
  <defs
     id="defs1518">
    <style
       id="style1516">.cls-1{fill:#ccc;stroke:#4d4d4d;}.cls-1,.cls-7{stroke-width:1.57px;}.cls-2{fill:#1a1a1a;}.cls-3{fill:#999;}.cls-3,.cls-4,.cls-5,.cls-6,.cls-7,.cls-8{stroke:#000;}.cls-3,.cls-8{stroke-width:1.07px;}.cls-4,.cls-6,.cls-7,.cls-8{fill:none;}.cls-4,.cls-5,.cls-6,.cls-7,.cls-8{stroke-linecap:round;}.cls-4{stroke-width:1.26px;}.cls-5{fill:#f2f2f2;}.cls-5,.cls-6{stroke-linejoin:round;stroke-width:3.87px;}</style>
  </defs>
  <title
     id="title1520">Asset 1</title>
  <g
     data-name="Layer 2"
     id="Layer_2">
    <g
       id="svg8">
      <g
         id="layer1">
        <path
           d="M479.32,321.05s1.52,36.37-27.27,43.18-226.53,9.1-357.59-11.36c0,0-101.52-17.42-93.19-47,0,0,21.21,10.6,11.36-15.91,0,0-46.21-105.31,100-155.31,0,0,94.7-34.85,169.7-15.91,0,0,230.32-246.23,525-27.28,0,0,194.71-39.39,172.74,88.64,0,0-31.82,93.95-74.25,95.46L771,308.93s-107.59,47-141.68,23.48Z"
           class="cls-1"
           id="path851" />
        <ellipse
           ry="74.25"
           rx="57.2"
           cy="208.17"
           cx="928.97"
           class="cls-2"
           id="path847" />
        <ellipse
           ry="112.13"
           rx="93.57"
           cy="264.99"
           cx="555.46"
           class="cls-2"
           id="path849" />
        <path
           d="M306.94,265.71c22.76,3.74,64.8,64.43-20.05,49.28s-46.21-47-46.21-47S247.09,255.86,306.94,265.71Z"
           class="cls-3"
           id="path853" />
        <path
           d="M33.6,253.4l142.5,26.79"
           class="cls-4"
           id="path855" />
        <path
           d="M45.39,301.62,183.6,327.33"
           class="cls-4"
           id="path857" />
        <path
           d="M202.89,237.33S175,273.76,205,343.4"
           class="cls-4"
           id="path859" />
        <path
           d="M33.75,210.1S5.89,246.53,35.89,316.17"
           class="cls-4"
           id="path859-7" />
        <path
           sodipodi:nodetypes="cscc"
           d="m 58.09,207.41 c 0,0 64.4,15.91 178,28 C 349.69,247.5 437.65,168 437.65,168 c 0,0 -90.95,-20.48 -201.56,67.41"
           class="cls-5"
           id="path878" />
        <path
           d="M33.75,210.1S74,202.52,80.82,158.58"
           class="cls-6"
           id="path880" />
        <path
           d="M446,149.07s56.06-77.27,196.22-43.94S807.37,91.49,807.37,91.49"
           class="cls-7"
           id="path882" />
        <path
           d="M664.94,110.43S649,244.53,680.85,262.71l183.34-24.24c-19.31-39.61-31.05-80.23-20.23-123.86"
           class="cls-8"
           id="path884" />
        <path
           d="M307.35,104.37c56.7-12.93,90.43-15.84,162.88,10.61"
           class="cls-8"
           id="path886" />
      </g>
    </g>
  </g>
</svg>
